<svg xmlns="http://www.w3.org/2000/svg" id="Camada_2" viewBox="0 0 580.52 159.9"><defs><style>.cls-1{fill:#009cc1;}.cls-2{fill:#5dc5ea;}.cls-3,.cls-4{fill:#343434;}.cls-4{fill-rule:evenodd;}</style></defs><g id="ASSINATURA"><g><g><polygon class="cls-2" points="63.91 24.6 63.91 0 42.61 12.3 63.91 24.6"></polygon><polygon class="cls-1" points="63.91 147.6 63.91 123 42.61 135.3 63.91 147.6"></polygon><polygon class="cls-1" points="85.21 135.3 85.21 159.9 106.52 147.6 85.21 135.3"></polygon><polygon class="cls-2" points="21.3 123 21.3 98.4 0 110.7 21.3 123"></polygon><polygon class="cls-2" points="21.3 73.8 21.3 49.2 0 61.5 21.3 73.8"></polygon><polygon class="cls-1" points="21.3 49.2 21.3 73.8 42.61 61.5 21.3 49.2"></polygon><polygon class="cls-2" points="63.91 73.8 63.91 49.2 42.61 61.5 63.91 73.8"></polygon><polygon class="cls-1" points="63.91 73.8 63.91 98.4 85.21 86.1 63.91 73.8"></polygon><polygon class="cls-1" points="63.91 49.2 63.91 73.8 85.21 61.5 63.91 49.2"></polygon><polygon class="cls-1" points="127.82 86.1 127.82 61.5 106.52 73.8 127.82 86.1"></polygon><polygon class="cls-1" points="42.61 36.9 42.61 61.5 63.91 49.2 42.61 36.9"></polygon><polygon class="cls-2" points="85.21 61.5 85.21 36.9 63.91 49.2 85.21 61.5"></polygon><polygon class="cls-1" points="85.21 36.9 85.21 61.5 106.52 49.2 85.21 36.9"></polygon><polygon class="cls-1" points="42.61 86.1 42.61 110.7 63.91 98.4 42.61 86.1"></polygon><polygon class="cls-2" points="63.91 123 63.91 98.4 42.61 110.7 63.91 123"></polygon><polygon class="cls-2" points="85.21 110.7 85.21 86.1 63.91 98.4 85.21 110.7"></polygon><polygon class="cls-1" points="85.21 86.1 85.21 110.7 106.52 98.4 85.21 86.1"></polygon><polygon class="cls-2" points="127.82 110.7 127.82 86.1 106.52 98.4 127.82 110.7"></polygon><polygon class="cls-1" points="127.82 86.1 127.82 110.7 149.13 98.4 127.82 86.1"></polygon><polygon class="cls-2" points="106.52 73.8 106.52 49.2 85.21 61.5 106.52 73.8"></polygon></g><g><path class="cls-4" d="M204.12,103.09h-16.87l-2.18,7.6h-14.62l17.18-52.69h16.12l17.18,52.69h-14.62l-2.18-7.6Zm-3.24-11.59l-5.2-18.21-5.2,18.21h10.4Z"></path><path class="cls-4" d="M256.59,92.2c-2.47,4-6.89,6.45-12.09,6.45-8.06,0-14.25-5.87-14.25-14.29s6.19-14.31,14.25-14.31c5.16,0,9.55,2.42,12.04,6.37l12.37-5.14c-4.64-8.67-13.79-14.4-24.42-14.4-15.37,0-27.65,11.97-27.65,27.48s12.28,27.46,27.65,27.46c10.67,0,19.84-5.76,24.46-14.48l-12.37-5.14Z"></path><path class="cls-4" d="M327.84,84.35c0-15.5,12.28-27.47,27.65-27.47s27.65,11.97,27.65,27.47-12.28,27.47-27.65,27.47-27.65-11.97-27.65-27.47Zm41.89,0c0-8.43-6.18-14.3-14.24-14.3s-14.24,5.87-14.24,14.3,6.18,14.3,14.24,14.3,14.24-5.87,14.24-14.3Z"></path><rect class="cls-3" x="311.89" y="58.01" width="13.49" height="52.69"></rect><polyline class="cls-4" points="427.36 58.01 427.36 110.7 416.96 110.7 399.86 83.45 399.86 110.7 386.38 110.7 386.38 58.01 396.85 58.01 413.95 85.26 413.95 58.01 427.36 58.01"></polyline><polyline class="cls-4" points="463.4 108.14 463.4 110.7 435 110.7 435 58.01 437.79 58.01 437.79 108.14 463.4 108.14"></polyline><path class="cls-4" d="M549.24,93.39c0,9.48-7.08,17.31-16.65,17.31h-24.78V58.01h20.11c7.39,0,12.58,5.27,12.58,11.82,0,2.63-.91,5.12-2.41,7.15,6.71,2.26,11.15,8.73,11.15,16.41Zm-38.65-32.82v15.51h22.07c.9,0,1.73,.07,2.49,.15,1.58-1.66,2.56-3.91,2.56-6.4,0-5.12-3.92-9.26-9.8-9.26h-17.32Zm35.93,32.82c0-8.13-5.8-14.75-14.09-14.75h-21.84v29.51h21.77c8.29,0,14.16-6.7,14.16-14.75Z"></path><path class="cls-4" d="M546.17,96.85h2.71c0,7.3,5.8,12.04,15.37,12.04,8.21,0,13.56-4.59,13.56-10.92,0-7.53-6.78-9.93-13.79-12.57-7.99-2.94-16.5-5.42-16.5-15.05,0-7.75,6.78-13.17,15.6-13.17s15.82,5.57,15.82,13.85h-2.79c0-6.32-5.35-11.21-13.03-11.21s-12.81,4.74-12.81,10.54c0,7.53,6.86,9.79,14.09,12.49,7.83,3.01,16.12,5.72,16.12,15.13,0,8.28-7.23,13.55-16.28,13.55-10.39,0-18.08-5.42-18.08-14.68"></path><polyline class="cls-4" points="307.09 71.03 295.56 71.03 295.56 110.7 282.15 110.7 282.15 71.03 270.63 71.03 270.63 58.01 307.09 58.01 307.09 71.03"></polyline><path class="cls-3" d="M496.95,96.77h-27.63l-5.42,13.93h-2.94l20.62-52.69h3.01l20.7,52.69h-2.94l-5.42-13.93Zm-.98-2.56l-12.87-32.97-12.8,32.97h25.67Z"></path></g></g></g></svg>